<svg xmlns="http://www.w3.org/2000/svg" xmlns:xlink="http://www.w3.org/1999/xlink" width="960" height="420.2" viewBox="0 0 960 420.2">
    <g>
        <path fill="none" stroke="#e9e9e9" stroke-width="1.0548" stroke-miterlimit="10" d="M-101.9,295.1C-92,210.7-17,142.3,66.5,126.4s171.3,14.4,238.1,67c49.1,38.7,88.2,88.4,133.7,131.1s101.2,79.8,163.5,83.5c59.8,3.5,117.1-24.2,166.8-57.6c49.7-33.5,95.3-73.6,148.8-100.4c53.6-26.8,119-38.8,173-13"/>
        <path fill="none" stroke="#e9e9e9" stroke-width="1.0548" stroke-miterlimit="10" d="M-98.7,296.7C-86.7,213.3-13.5,145,68.4,126.5s168.2,7.5,236.2,55.2c50.7,35.6,93.1,82.7,139.7,126.1c47.7,44.4,101.1,86.8,164.4,94.5c59.7,7.2,119.1-17.3,170.4-48.2c50.3-30.3,96.5-67.9,150-94.4c54.3-26.9,117.9-42.3,170.7-22.1"/>
        <path fill="none" stroke="#e9e9e9" stroke-width="1.0548" stroke-miterlimit="10" d="M-95.6,298.3c14.3-82.4,85.6-150.6,165.9-171.6s165.3,0.6,234.3,43.5c52.3,32.5,98.1,77.1,145.6,121.1c49.8,46,101,93.8,165.2,105.4c59.7,10.8,120.9-10.5,174.1-38.8c50.9-27.2,97.8-62.1,151.2-88.4c55-26.9,116.9-45.9,168.3-31.1"/>
        <path fill="none" stroke="#e9e9e9" stroke-width="1.0548" stroke-miterlimit="10" d="M-92.4,299.9c16.4-81.3,86.0-149.5,164.7-173.1s162.4-6.3,232.4,31.7c54.1,29.4,103.1,71.4,151.6,116.1c51.9,47.7,100.9,100.7,166.1,116.4c59.6,14.3,122.7-3.7,177.7-29.4c51.4-24.1,99.1-56.4,152.4-82.4c56.4-27.1,117.9-49.4,168.3-40.2"/>
        <path fill="none" stroke="#e9e9e9" stroke-width="1.0548" stroke-miterlimit="10" d="M-89.2,301.4c18.6-80.2,86.4-148.4,163.4-174.6s159.6-13.3,230.4,19.9c55.9,26.2,108.1,65.7,157.5,111.1c54.0,49.3,100.8,107.6,166.9,127.4c59.5,17.8,126.2,9.8,185.0-10.6c51.9-21.1,100.4-50.7,153.6-76.4c57.1-27.2,114.8-52.9,163.6-49.2"/>
        <path fill="none" stroke="#e9e9e9" stroke-width="1.0548" stroke-miterlimit="10" d="M-86.0,303.0c20.8-79.2,86.8-147.3,162.2-176.1s156.9-20.3,228.5,8.2c57.8,23.0,113.0,60.1,163.5,106.1c56.2,51.0,100.7,114.4,167.8,138.4c59.4,21.3,127.8,16.4,188.6-1.2c52.6-15.2,102.9-39.3,156.0-64.5c57.9-27.2,112.8-56.4,158.8-67.3"/>
        <path fill="none" stroke="#e9e9e9" stroke-width="1.0548" stroke-miterlimit="10" d="M-82.8,304.6c23.0-78.1,87.1-146.2,160.9-177.6s154.2-27.5,226.6-3.6c59.7,19.7,118.0,54.4,169.5,101.1c58.3,52.6,100.6,121.1,168.6,149.4c59.3,24.6,127.8,16.4,188.6-1.2c52.6-18.1,102.9-45.0,156.0-70.4c57.1-27.2,113.8-56.4,161.2-58.3"/>
        <path fill="none" stroke="#e9e9e9" stroke-width="1.0548" stroke-miterlimit="10" d="M-79.6,306.2c25.2-77.1,87.5-145.1,159.7-179.0s151.6-34.7,224.6-15.4c61.7,16.4,123.0,48.8,175.4,96.1c60.4,54.3,100.5,127.8,169.5,160.4c59.2,28.0,129.4,23.0,192.3,8.3c53.2-9.7,105.4-27.9,158.3-52.5c59.3-27.2,109.7-70.5,151.7-94.5"/>
        <path fill="none" stroke="#e9e9e9" stroke-width="1.0548" stroke-miterlimit="10" d="M-76.5,307.8c27.4-76.0,87.9-144.0,158.4-180.5s141.5-64.8,216.9-62.4c69.8,2.2,142.9,26.1,199.3,76.1c68.9,60.8,100.4,134.5,170.4,171.4c59.3,31.2,130.9,29.5,195.9,17.7c53.2-9.7,105.4-27.9,158.3-52.5c59.3-27.2,109.7-70.5,151.7-94.5"/>
        <path fill="none" stroke="#e9e9e9" stroke-width="1.0548" stroke-miterlimit="10" d="M-73.3,309.4c29.5-75.0,88.2-142.9,157.1-182.0s146.6-49.6,220.8-38.9c65.8,9.5,133.0,37.4,187.3,86.1c64.6,57.5,100.4,141.1,171.2,182.4c59.1,34.5,132.5,35.8,199.5,27.1c53.5-7.0,106.7-22.1,159.5-46.5c60.7-27.4,109.7-67.0,154.1-85.5"/>
        <path fill="none" stroke="#e9e9e9" stroke-width="1.0548" stroke-miterlimit="10" d="M-70.1,310.9c33.9-72.9,89.0-140.7,154.6-185.0s141.5-64.8,216.9-62.4c71.6-5.1,147.9,20.5,205.2,71.0c75.3,65.8,100.7,173.7,175.5,237.4c59.3,50.5,140.5,66.5,217.7,74.1c55.1,7.8,114.4,12.1,166.7-10.6c64.3-27.9,104.5-91.7,137.6-157.9"/>
        <path fill="none" stroke="#e9e9e9" stroke-width="1.0548" stroke-miterlimit="10" d="M-66.9,312.5c36.1-71.8,89.3-139.6,153.4-186.5s139.0-68.8,215.0-74.2c71.6-5.4,147.9,20.5,205.2,71.0c75.3,65.8,100.7,173.7,175.5,237.4c59.3,50.5,140.5,66.5,217.7,74.1c55.1,7.8,114.4,12.1,166.7-10.6c64.3-27.9,104.5-91.7,137.6-157.9"/>
        <path fill="none" stroke="#e9e9e9" stroke-width="1.0548" stroke-miterlimit="10" d="M-63.7,314.1c36.1-71.8,89.3-139.6,153.4-186.5s139.0-68.8,215.0-74.2c71.6-5.4,147.9,20.5,205.2,71.0c75.3,65.8,100.7,173.7,175.5,237.4c59.3,50.5,140.5,66.5,217.7,74.1c55.1,7.8,114.4,12.1,166.7-10.6c64.3-27.9,104.5-91.7,137.6-157.9"/>
        <path fill="none" stroke="#e9e9e9" stroke-width="1.0548" stroke-miterlimit="10" d="M-60.6,315.7c38.3-70.8,89.7-138.5,152.1-187.9s136.2-80.3,213.1-85.9c73.7-5.4,152.9,14.8,211.2,66.0c75.6,67.4,100.9,180.2,176.3,248.4c59.4,53.7,142.2,72.4,221.4,83.5c54.3,3.1,111.8,0.7,164.3-22.6c62.8-27.7,105.5-84.6,142.3-130.7"/>
        <path fill="none" stroke="#e9e9e9" stroke-width="1.0548" stroke-miterlimit="10" d="M-57.4,317.3c40.5-69.7,90.1-137.4,150.9-190.9s133.6-88.1,211.1-97.7c75.6-9.4,157.9,9.1,217.1,61.0c75.3,65.8,100.7,173.7,175.5,237.4c59.3,50.5,140.5,66.5,217.7,74.1c55.1,7.8,114.4,6.4,166.7-16.6c64.3-27.7,104.5-91.7,137.6-157.9"/>
        <path fill="none" stroke="#e9e9e9" stroke-width="1.0548" stroke-miterlimit="10" d="M-54.2,318.8c42.7-68.7,90.4-136.3,149.6-190.9s133.6-88.1,211.1-97.7c75.6-9.4,157.9,9.1,217.1,61.0c75.3,65.8,100.7,173.7,175.5,237.4c59.3,53.7,142.2,72.4,221.4,83.5c54.3,3.1,111.8,0.7,164.3-22.6c62.8-27.7,105.5-84.6,142.3-130.7"/>
    </g>
</svg>
